<?xml version="1.0" encoding="iso-8859-1"?>
<!-- Generator: Adobe Illustrator 21.0.0, SVG Export Plug-In . SVG Version: 6.00 Build 0)  -->
<svg version="1.1" id="Layer_1" xmlns="http://www.w3.org/2000/svg" xmlns:xlink="http://www.w3.org/1999/xlink" x="0px" y="0px"
	 viewBox="0 0 24 24" enable-background="new 0 0 24 24" xml:space="preserve">
<g>
	<path fill="#303C42" d="M23.5,7.9999995h-4.0305786L13.8256226,0.209411
		c-0.1605225-0.2247314-0.4727783-0.2767334-0.6975098-0.1162109l-0.8137207,0.5812988
		c-0.2247314,0.1605225-0.2767334,0.4727783-0.1162109,0.6974487l4.8015747,6.6280518H6.6052246l4.8015747-6.6280518
		c0.1605225-0.2246704,0.1085205-0.5369263-0.1162109-0.6974487l-0.8137207-0.5812988
		C10.2521362-0.0673224,9.9398804-0.0153204,9.7793579,0.209411L4.1355591,7.9999995H0.5c-0.2763672,0-0.5,0.2236323-0.5,0.4999995
		v1c0,0.2763672,0.2236328,0.5,0.5,0.5h0.9954834l2.5640869,7.3266611c0.1181641,0.3359375,0.3212891,0.6420898,0.6201172,0.9365234
		c0.1376953,0.1357422,0.34375,0.1791992,0.5244141,0.1123047c0.1816406-0.0673828,0.3085938-0.2338867,0.3242188-0.4267578
		C5.8095703,14.612792,8.6513672,11.999999,12,11.999999s6.1904297,2.612793,6.4716797,5.9487314
		c0.015625,0.1928711,0.1425781,0.359375,0.3242188,0.4267578c0.0566406,0.0209961,0.1152344,0.03125,0.1738281,0.03125
		c0.1289063,0,0.2558594-0.0498047,0.3505859-0.1435547c0.2988281-0.2944336,0.5019531-0.6005859,0.6201172-0.9375
		l2.5640259-7.3256845H23.5c0.2763672,0,0.5-0.2236328,0.5-0.5v-1C24,8.2236319,23.7763672,7.9999995,23.5,7.9999995z"/>
	<path fill="#303C42" d="M12,12.999999c-3.0322266,0-5.5,2.4672852-5.5,5.500001S8.9677734,24,12,24s5.5-2.4672852,5.5-5.5
		S15.0322266,12.999999,12,12.999999z M14.8535156,17.3535156l-3.5,3.5C11.2558594,20.9511719,11.1279297,21,11,21
		s-0.2558594-0.0488281-0.3535156-0.1464844l-1.5-1.5c-0.1953125-0.1953125-0.1953125-0.5117188,0-0.7070313
		s0.5117188-0.1953125,0.7070313,0L11,19.7929688l3.1464844-3.1464844c0.1953125-0.1953125,0.5117188-0.1953125,0.7070313,0
		S15.0488281,17.1582031,14.8535156,17.3535156z"/>
</g>
<g>
</g>
<g>
</g>
<g>
</g>
<g>
</g>
<g>
</g>
<g>
</g>
<g>
</g>
<g>
</g>
<g>
</g>
<g>
</g>
<g>
</g>
<g>
</g>
<g>
</g>
<g>
</g>
<g>
</g>
</svg>
