<?xml version="1.0" encoding="utf-8"?>
<!-- Generator: Adobe Illustrator 16.0.0, SVG Export Plug-In . SVG Version: 6.00 Build 0)  -->
<!DOCTYPE svg PUBLIC "-//W3C//DTD SVG 1.0//EN" "http://www.w3.org/TR/2001/REC-SVG-20010904/DTD/svg10.dtd">
<svg version="1.0" id="Layer_1" xmlns="http://www.w3.org/2000/svg" xmlns:xlink="http://www.w3.org/1999/xlink" x="0px" y="0px"
	 width="100px" height="100px" viewBox="0 0 100 100" enable-background="new 0 0 100 100" xml:space="preserve">
<circle cx="43.333" cy="83.333" r="6.667"/>
<circle cx="70" cy="83.333" r="6.667"/>
<path d="M83.333,36.667V23.333H70V10H36.667v26.667h-7.101l-2.025-9.787C26.338,21.058,20.946,16.667,15,16.667h-5v6.667h5
	c2.75,0,5.456,2.204,6.012,4.896L30,71.667h43.333c5.502,0,10.844-4.421,11.872-9.824L90,36.667H83.333z M76.667,30v6.667h-20V30
	H76.667z M43.333,16.667h20v6.667H50v13.333h-6.667V16.667z M78.655,60.596C78.226,62.858,75.638,65,73.333,65V48.333h-5V65h-5
	V48.333h-5V65h-5V48.333h-5V65h-5V48.333h-5V65h-2.905l-4.482-21.667h50.998L78.655,60.596z"/>
</svg>
